# xmcd
#
# Track frame offsets: 
#        150
#        15222
#        31052
#        48228
#        60008
#        77790
#        89705
#        101874
#        120438
#        137713
#        169058
#        178845
#        191053
#        203206
#        215341
#        234543
#        250507
#
# Disc length: 3520 seconds
#
# Revision: 0
# Processed by: cddbd v1.5.2PL0 Copyright (c) Steve Scherf et al.
# Submitted via: ExactAudioCopy v0.99pb4
#
DISCID=da0dbe11
DTITLE=Replacements - We're Sorry, Portland- Disc 1
DYEAR=1991
DGENRE=Ambient
TTITLE0=I Will Dare
TTITLE1=Bent Out of Shape
TTITLE2=Achin' to Be
TTITLE3=Another Girl, Another Planet
TTITLE4=Merry Go Round
TTITLE5=Happy Town
TTITLE6=Nightclub Jitters
TTITLE7=Someone Take the Wheel
TTITLE8=Swinging Party
TTITLE9=One Wink at a Time
TTITLE10=Skyway
TTITLE11=When it Began
TTITLE12=Waitress in the Sky
TTITLE13=Kiss Me on the Bus
TTITLE14=Talent Show
TTITLE15=Valentine
TTITLE16=Nobody
EXTD=
EXTT0=
EXTT1=
EXTT2=
EXTT3=
EXTT4=
EXTT5=
EXTT6=
EXTT7=
EXTT8=
EXTT9=
EXTT10=
EXTT11=
EXTT12=
EXTT13=
EXTT14=
EXTT15=
EXTT16=
PLAYORDER=
